<svg class="icon" width="32" height="32" viewBox="0 0 1024 1024" xmlns="http://www.w3.org/2000/svg"><path d="M67.2 950.4c-31.2 0-49.6-2.2-51.2-2.4-3.8-.5-7-3.1-8.2-6.7-1.2-3.6-.3-7.6 2.4-10.3l541.1-541.1c3.9-3.9 10.2-3.9 14.1 0l88 88c1.7 1.7 2.8 4 2.9 6.4 10.5 165.4 18.7 197.6 19.1 198.9 1 3.5 0 7.2-2.6 9.8-69.4 68.2-146.9 124.1-230.7 166-67 33.6-138.1 58.4-211.3 73.6-68.5 14.4-125.6 17.8-163.6 17.8zm-27.5-20.8c32.9 1.5 101.6 1.4 187.9-16.7 111.2-23.4 275.1-82.3 427.1-230.4-2.8-15-9.8-62.5-18.2-193.2L558.2 411 39.7 929.6z"/><path d="M486.4 486.9L124.6 848.8s232.9 29.3 433.7-168.6c0 0-5.7-20.3-13-134.4l-58.9-58.9z"/><path d="M691.1 441.4c-2.6 0-5.1-1-7.1-2.9l-96-96c-3.9-3.9-3.9-10.2 0-14.1L823.9 92.5c29.8-29.8 78.3-29.8 108.1 0l44.3 44.3c16.1 16.1 24.1 38.3 22.1 60.9s-13.9 43-32.6 56l-268.9 186c-1.8 1.2-3.8 1.7-5.8 1.7zm-81.8-105.9l83 83 262.1-181.2c13.8-9.5 22.6-24.6 24.1-41.3 1.5-16.7-4.4-33.1-16.3-45l-44.3-44.3c-22-22-57.8-22-79.8 0L614.5 330.2l-5.2 5.3zM117.9 847.3c-5.4 0-9.9-4.4-10-9.8-.1-5.5 4.3-10.1 9.8-10.2 118.5-2.1 256.6-65.1 351.5-117.6 103.3-57.1 179.1-114.4 179.9-115 4.4-3.3 10.7-2.5 14 1.9s2.5 10.7-1.9 14c-.8.6-77.7 58.7-182.3 116.5-61.5 34-120.4 61.3-175.2 81.1-68.8 24.9-131.3 38-185.7 39 0 .1-.1.1-.1.1z"/></svg>